<svg width="334" height="64" viewBox="0 0 334 64" fill="none" xmlns="http://www.w3.org/2000/svg">
<path d="M37.266 43.2246C37.605 43.2623 37.8875 43.5071 37.9628 43.8461C38.0946 44.4299 38.2453 44.9949 38.396 45.5599C39.2623 48.7992 40.4488 51.9444 41.9178 54.9577C42.1061 55.372 41.7294 55.824 41.2963 55.6922C35.8158 54.1667 30.0529 54.016 24.4406 55.259C18.414 56.615 12.8959 59.5341 8.39475 63.7716C8.09342 64.0729 7.58492 64.0541 7.28359 63.7528L0.239989 56.7092C-0.0613416 56.4078 -0.0613418 55.9182 0.221155 55.598C4.45862 51.0969 7.37776 45.5788 8.73374 39.5522C9.97673 33.9775 9.82607 28.1769 8.30058 22.6965C8.18758 22.2445 8.63958 21.8678 9.03507 22.075C12.0484 23.544 15.1935 24.7305 18.4328 25.5968C18.9978 25.7475 19.5816 25.8793 20.1466 26.03C20.4856 26.1053 20.7305 26.3878 20.7681 26.7268C21.4461 32.6404 20.9941 38.5163 19.4121 44.2416L19.2991 44.6936L19.7511 44.5806C25.4764 42.9986 31.3712 42.5278 37.266 43.2246Z" fill="#1A2A3A"/>
<path fill-rule="evenodd" clip-rule="evenodd" d="M63.7832 55.6167C54.505 45.749 52.142 31.7071 56.6941 19.7131C47.9069 18.5426 45.2007 15.8209 44.3424 7.27479C32.3347 11.859 18.261 9.50395 8.37605 0.209576C8.05589 -0.0729217 7.56622 -0.0729216 7.26489 0.228409L0.240123 7.25318C-0.0800408 7.57334 -0.080041 8.063 0.240123 8.38317C3.52544 11.5194 7.22023 14.1076 11.1832 16.1105C21.2371 21.1915 33.017 22.5047 44.2155 19.4382L44.6675 19.3252L44.5545 19.7772C40.2982 35.3711 44.5169 52.1326 55.6096 63.7526C55.9109 64.054 56.4194 64.0728 56.7396 63.7526L63.7644 56.7279C64.0657 56.4266 64.0845 55.9181 63.7832 55.6167Z" fill="#1A2A3A"/>
<path d="M62.0542 8.26041C62.0542 11.7907 59.1923 14.6526 55.662 14.6526C52.1317 14.6526 49.2698 11.7907 49.2698 8.26041C49.2698 4.7301 52.1317 1.86822 55.662 1.86822C59.1923 1.86822 62.0542 4.7301 62.0542 8.26041Z" fill="#D4AF37"/>
<path d="M97.9297 20.1992C97.9297 20.8503 98.1055 21.4622 98.457 22.0352C98.8216 22.6081 99.2839 23.1224 99.8438 23.5781C100.417 24.0339 101.048 24.4961 101.738 24.9648C102.428 25.4206 103.118 25.9154 103.809 26.4492C104.512 26.9831 105.143 27.5625 105.703 28.1875C106.276 28.8125 106.738 29.5807 107.09 30.4922C107.454 31.3906 107.637 32.3737 107.637 33.4414C107.637 35.8763 106.797 37.8555 105.117 39.3789C103.438 40.8893 101.276 41.6445 98.6328 41.6445C97.5651 41.6445 96.276 41.4948 94.7656 41.1953C93.2552 40.9089 92.3763 40.7526 92.1289 40.7266V34.9258C92.7018 35.7852 93.6198 36.5013 94.8828 37.0742C96.1458 37.6341 97.4219 37.9141 98.7109 37.9141C99.9219 37.9141 100.879 37.5625 101.582 36.8594C102.285 36.1432 102.637 35.2188 102.637 34.0859C102.637 33.3958 102.461 32.7578 102.109 32.1719C101.758 31.5729 101.302 31.0456 100.742 30.5898C100.182 30.1341 99.5638 29.6849 98.8867 29.2422C98.2096 28.7865 97.526 28.2982 96.8359 27.7773C96.1589 27.2435 95.5404 26.6706 94.9805 26.0586C94.4206 25.4466 93.9648 24.6914 93.6133 23.793C93.2617 22.8945 93.0859 21.9115 93.0859 20.8438C93.0859 18.4219 93.8672 16.5078 95.4297 15.1016C96.9922 13.6953 99.0755 12.9922 101.68 12.9922C102.5 12.9922 103.483 13.1094 104.629 13.3438C105.788 13.5781 106.536 13.7148 106.875 13.7539V19.1641C106.432 18.3438 105.742 17.7188 104.805 17.2891C103.88 16.8594 102.852 16.6445 101.719 16.6445C100.56 16.6445 99.6354 16.957 98.9453 17.582C98.2682 18.207 97.9297 19.0794 97.9297 20.1992ZM136.957 46.4492C136.957 48.3112 137.009 49.8151 137.113 50.9609H132.328C132.432 49.9323 132.484 48.3568 132.484 46.2344V38.0703C131.091 40.2318 128.969 41.3125 126.117 41.3125C123.695 41.3125 121.632 40.401 119.926 38.5781C118.22 36.7552 117.367 34.5352 117.367 31.918C117.367 29.2357 118.22 26.9701 119.926 25.1211C121.632 23.2591 123.721 22.3281 126.195 22.3281C129.086 22.3281 131.182 23.3372 132.484 25.3555V24.8867C132.484 24.2747 132.458 23.5391 132.406 22.6797H137.074C136.996 23.7474 136.957 25.401 136.957 27.6406V46.4492ZM131.078 35.8828C132.12 34.763 132.641 33.4154 132.641 31.8398C132.641 30.2643 132.113 28.9167 131.059 27.7969C130.017 26.6771 128.773 26.1172 127.328 26.1172C125.831 26.1172 124.555 26.6771 123.5 27.7969C122.445 28.9036 121.918 30.2383 121.918 31.8008C121.918 33.3893 122.452 34.75 123.52 35.8828C124.587 37.0026 125.87 37.5625 127.367 37.5625C128.812 37.5625 130.049 37.0026 131.078 35.8828ZM152.801 33.2852C152.801 34.8086 153.152 35.9284 153.855 36.6445C154.572 37.3607 155.418 37.7188 156.395 37.7188C157.423 37.7188 158.276 37.3281 158.953 36.5469C159.643 35.7526 159.988 34.6654 159.988 33.2852V26.7617C159.988 25.069 159.936 23.7083 159.832 22.6797H164.637C164.533 23.7083 164.48 25.069 164.48 26.7617V36.918C164.48 38.7279 164.676 40.0885 165.066 41H160.711C160.333 40.2188 160.145 39.3529 160.145 38.4023C158.921 40.3685 157.124 41.3516 154.754 41.3516C152.814 41.3516 151.251 40.7005 150.066 39.3984C148.895 38.0833 148.309 36.2279 148.309 33.832V25.3164H146.395C146.811 24.7174 147.208 23.8385 147.586 22.6797H152.957C152.853 24.2161 152.801 25.5768 152.801 26.7617V33.2852ZM180.559 25.8828C179.543 25.8828 178.677 26.0456 177.961 26.3711C177.245 26.6836 176.568 27.1328 175.93 27.7188V23.5977C176.19 23.5586 176.613 23.4284 177.199 23.207C177.785 22.9727 178.456 22.7708 179.211 22.6016C179.966 22.4193 180.786 22.3281 181.672 22.3281C186.607 22.3281 189.074 25.069 189.074 30.5508V36.3125C189.074 37.4323 189.439 37.9922 190.168 37.9922C190.585 37.9922 190.891 37.9271 191.086 37.7969V40.5117C190.188 41.1628 189.172 41.4883 188.039 41.4883C187.271 41.4883 186.633 41.306 186.125 40.9414C185.617 40.5768 185.285 40.0625 185.129 39.3984C184.634 40.0625 183.99 40.5768 183.195 40.9414C182.401 41.306 181.548 41.4883 180.637 41.4883C178.775 41.4883 177.29 40.9935 176.184 40.0039C175.077 39.0013 174.523 37.6927 174.523 36.0781C174.523 34.4505 175.09 33.0898 176.223 31.9961C177.368 30.9023 178.938 30.3555 180.93 30.3555C181.763 30.3555 182.551 30.5052 183.293 30.8047C184.035 31.1042 184.562 31.4622 184.875 31.8789V30.1992C184.875 28.9102 184.51 27.8685 183.781 27.0742C183.065 26.2799 181.991 25.8828 180.559 25.8828ZM178.957 35.8438C178.957 36.5859 179.224 37.2044 179.758 37.6992C180.305 38.194 181.04 38.4414 181.965 38.4414C182.785 38.4414 183.488 38.1875 184.074 37.6797C184.66 37.1719 184.953 36.5599 184.953 35.8438C184.953 35.1536 184.66 34.5612 184.074 34.0664C183.488 33.5716 182.785 33.3242 181.965 33.3242C181.04 33.3242 180.305 33.5651 179.758 34.0469C179.224 34.5286 178.957 35.1276 178.957 35.8438ZM209.898 22.3281C210.341 22.3281 210.745 22.3607 211.109 22.4258C211.474 22.4909 211.715 22.5234 211.832 22.5234V27.3281C211.064 26.8203 210.185 26.5664 209.195 26.5664C208.128 26.5664 207.229 27.1068 206.5 28.1875C205.784 29.2552 205.426 30.4466 205.426 31.7617V36.918C205.426 38.2721 205.465 39.6328 205.543 41H200.777C200.868 39.4115 200.914 38.0508 200.914 36.918V25.3164H198.98C199.475 24.5352 199.892 23.6562 200.23 22.6797H204.977V26.8008C205.315 25.4596 205.94 24.3789 206.852 23.5586C207.763 22.7383 208.779 22.3281 209.898 22.3281ZM236.934 32.3672H224.199C224.277 33.8646 224.85 35.1406 225.918 36.1953C226.986 37.237 228.32 37.7578 229.922 37.7578C231.055 37.7578 232.012 37.6667 232.793 37.4844C233.574 37.2891 234.349 36.944 235.117 36.4492V40.3555C234.818 40.3815 234.375 40.4792 233.789 40.6484C233.216 40.8047 232.539 40.9544 231.758 41.0977C230.977 41.2409 230.111 41.3125 229.16 41.3125C226.413 41.3125 224.134 40.4141 222.324 38.6172C220.514 36.8073 219.609 34.5742 219.609 31.918C219.609 29.1836 220.449 26.9115 222.129 25.1016C223.822 23.2786 225.911 22.3672 228.398 22.3672C229.727 22.3672 230.944 22.6406 232.051 23.1875C233.171 23.7344 234.082 24.444 234.785 25.3164C235.488 26.1888 236.035 27.1458 236.426 28.1875C236.816 29.2292 237.012 30.2578 237.012 31.2734C237.012 31.7422 236.986 32.1068 236.934 32.3672ZM228.359 25.6484C227.331 25.6484 226.445 25.987 225.703 26.6641C224.974 27.3281 224.46 28.2005 224.16 29.2812H232.324C232.194 28.3307 231.771 27.4909 231.055 26.7617C230.352 26.0195 229.453 25.6484 228.359 25.6484ZM247.27 32.8164C246.527 31.0586 246.156 29.2161 246.156 27.2891C246.156 25.362 246.527 23.526 247.27 21.7812C248.025 20.0234 249.04 18.5065 250.316 17.2305C251.592 15.9544 253.122 14.9453 254.906 14.2031C256.69 13.4479 258.572 13.0703 260.551 13.0703C263.22 13.0703 265.661 13.7083 267.875 14.9844C270.102 16.2604 271.846 17.9857 273.109 20.1602C274.372 22.3346 275.004 24.7109 275.004 27.2891C275.004 29.2161 274.626 31.0586 273.871 32.8164C273.129 34.5612 272.12 36.0716 270.844 37.3477C269.568 38.6107 268.031 39.6198 266.234 40.375C264.451 41.1172 262.556 41.4883 260.551 41.4883C258.572 41.4883 256.69 41.1172 254.906 40.375C253.122 39.6198 251.592 38.6107 250.316 37.3477C249.04 36.0716 248.025 34.5612 247.27 32.8164ZM252.23 22.1719C251.384 23.7344 250.961 25.4401 250.961 27.2891C250.961 29.138 251.384 30.8438 252.23 32.4062C253.077 33.9688 254.236 35.2057 255.707 36.1172C257.178 37.0286 258.793 37.4844 260.551 37.4844C262.322 37.4844 263.943 37.0286 265.414 36.1172C266.898 35.2057 268.064 33.9688 268.91 32.4062C269.77 30.8438 270.199 29.138 270.199 27.2891C270.199 25.4401 269.77 23.7344 268.91 22.1719C268.064 20.6094 266.898 19.3789 265.414 18.4805C263.943 17.569 262.322 17.1133 260.551 17.1133C258.793 17.1133 257.178 17.569 255.707 18.4805C254.236 19.3789 253.077 20.6094 252.23 22.1719ZM297.371 30.5508C297.371 29.0664 297.039 27.9336 296.375 27.1523C295.724 26.3581 294.884 25.9609 293.855 25.9609C292.749 25.9609 291.863 26.3581 291.199 27.1523C290.548 27.9466 290.223 29.0143 290.223 30.3555V36.8789C290.223 38.4805 290.262 39.8542 290.34 41H285.574C285.652 39.8542 285.691 38.4805 285.691 36.8789V25.3164H283.777C284.194 24.6784 284.624 23.7995 285.066 22.6797H290.223V25.1992C290.73 24.3529 291.44 23.6693 292.352 23.1484C293.276 22.6276 294.324 22.3672 295.496 22.3672C297.553 22.3672 299.135 23.0768 300.242 24.4961C301.349 25.9023 301.902 27.9206 301.902 30.5508V36.8789C301.902 38.4805 301.941 39.8542 302.02 41H297.254C297.332 39.8542 297.371 38.4805 297.371 36.8789V30.5508ZM329.309 32.3672H316.574C316.652 33.8646 317.225 35.1406 318.293 36.1953C319.361 37.237 320.695 37.7578 322.297 37.7578C323.43 37.7578 324.387 37.6667 325.168 37.4844C325.949 37.2891 326.724 36.944 327.492 36.4492V40.3555C327.193 40.3815 326.75 40.4792 326.164 40.6484C325.591 40.8047 324.914 40.9544 324.133 41.0977C323.352 41.2409 322.486 41.3125 321.535 41.3125C318.788 41.3125 316.509 40.4141 314.699 38.6172C312.889 36.8073 311.984 34.5742 311.984 31.918C311.984 29.1836 312.824 26.9115 314.504 25.1016C316.197 23.2786 318.286 22.3672 320.773 22.3672C322.102 22.3672 323.319 22.6406 324.426 23.1875C325.546 23.7344 326.457 24.444 327.16 25.3164C327.863 26.1888 328.41 27.1458 328.801 28.1875C329.191 29.2292 329.387 30.2578 329.387 31.2734C329.387 31.7422 329.361 32.1068 329.309 32.3672ZM320.734 25.6484C319.706 25.6484 318.82 25.987 318.078 26.6641C317.349 27.3281 316.835 28.2005 316.535 29.2812H324.699C324.569 28.3307 324.146 27.4909 323.43 26.7617C322.727 26.0195 321.828 25.6484 320.734 25.6484Z" fill="#1A2A3A"/>
</svg>
