<svg width="334" height="65" viewBox="0 0 334 65" fill="none" xmlns="http://www.w3.org/2000/svg">
<path d="M37.266 44.213C37.605 44.2507 37.8875 44.4955 37.9628 44.8345C38.0946 45.4184 38.2453 45.9833 38.396 46.5483C39.2623 49.7876 40.4488 52.9328 41.9178 55.9461C42.1061 56.3604 41.7294 56.8124 41.2963 56.6806C35.8158 55.1551 30.0529 55.0044 24.4406 56.2474C18.414 57.6034 12.8959 60.5225 8.39475 64.76C8.09342 65.0613 7.58492 65.0425 7.28359 64.7412L0.239989 57.6976C-0.0613416 57.3962 -0.0613418 56.9066 0.221155 56.5864C4.45862 52.0853 7.37776 46.5672 8.73374 40.5406C9.97673 34.9659 9.82607 29.1653 8.30058 23.6849C8.18758 23.2329 8.63958 22.8562 9.03507 23.0634C12.0484 24.5324 15.1935 25.7189 18.4328 26.5852C18.9978 26.7359 19.5816 26.8677 20.1466 27.0184C20.4856 27.0937 20.7305 27.3762 20.7681 27.7152C21.4461 33.6288 20.9941 39.5047 19.4121 45.23L19.2991 45.682L19.7511 45.569C25.4764 43.987 31.3712 43.5162 37.266 44.213Z" fill="#E8D8C3"/>
<path fill-rule="evenodd" clip-rule="evenodd" d="M63.7832 56.6051C54.505 46.7374 52.142 32.6955 56.6941 20.7015C47.9069 19.531 45.2007 16.8093 44.3424 8.26319C32.3347 12.8474 18.261 10.4924 8.37605 1.19798C8.05589 0.915482 7.56622 0.915482 7.26489 1.21681L0.240123 8.24158C-0.0800408 8.56175 -0.080041 9.05141 0.240123 9.37157C3.52544 12.5078 7.22023 15.096 11.1832 17.0989C21.2371 22.1799 33.017 23.4931 44.2155 20.4266L44.6675 20.3136L44.5545 20.7656C40.2982 36.3595 44.5169 53.121 55.6096 64.7411C55.9109 65.0424 56.4194 65.0612 56.7396 64.7411L63.7644 57.7163C64.0657 57.415 64.0845 56.9065 63.7832 56.6051Z" fill="#E8D8C3"/>
<path d="M62.0542 9.24881C62.0542 12.7791 59.1923 15.641 55.662 15.641C52.1317 15.641 49.2698 12.7791 49.2698 9.24881C49.2698 5.71851 52.1317 2.85663 55.662 2.85663C59.1923 2.85663 62.0542 5.71851 62.0542 9.24881Z" fill="#D4AF37"/>
<path d="M97.9297 21.1876C97.9297 21.8387 98.1055 22.4506 98.457 23.0236C98.8216 23.5965 99.2839 24.1108 99.8438 24.5665C100.417 25.0223 101.048 25.4845 101.738 25.9532C102.428 26.409 103.118 26.9038 103.809 27.4376C104.512 27.9715 105.143 28.5509 105.703 29.1759C106.276 29.8009 106.738 30.5691 107.09 31.4806C107.454 32.379 107.637 33.3621 107.637 34.4298C107.637 36.8647 106.797 38.8439 105.117 40.3673C103.438 41.8777 101.276 42.6329 98.6328 42.6329C97.5651 42.6329 96.276 42.4832 94.7656 42.1837C93.2552 41.8973 92.3763 41.741 92.1289 41.715V35.9142C92.7018 36.7736 93.6198 37.4897 94.8828 38.0626C96.1458 38.6225 97.4219 38.9025 98.7109 38.9025C99.9219 38.9025 100.879 38.5509 101.582 37.8478C102.285 37.1316 102.637 36.2072 102.637 35.0743C102.637 34.3842 102.461 33.7462 102.109 33.1603C101.758 32.5613 101.302 32.034 100.742 31.5782C100.182 31.1225 99.5638 30.6733 98.8867 30.2306C98.2096 29.7749 97.526 29.2866 96.8359 28.7657C96.1589 28.2319 95.5404 27.659 94.9805 27.047C94.4206 26.435 93.9648 25.6798 93.6133 24.7814C93.2617 23.8829 93.0859 22.8999 93.0859 21.8322C93.0859 19.4103 93.8672 17.4962 95.4297 16.09C96.9922 14.6837 99.0755 13.9806 101.68 13.9806C102.5 13.9806 103.483 14.0978 104.629 14.3322C105.788 14.5665 106.536 14.7032 106.875 14.7423V20.1525C106.432 19.3322 105.742 18.7072 104.805 18.2775C103.88 17.8478 102.852 17.6329 101.719 17.6329C100.56 17.6329 99.6354 17.9454 98.9453 18.5704C98.2682 19.1954 97.9297 20.0678 97.9297 21.1876ZM136.957 47.4376C136.957 49.2996 137.009 50.8035 137.113 51.9493H132.328C132.432 50.9207 132.484 49.3452 132.484 47.2228V39.0587C131.091 41.2202 128.969 42.3009 126.117 42.3009C123.695 42.3009 121.632 41.3894 119.926 39.5665C118.22 37.7436 117.367 35.5236 117.367 32.9064C117.367 30.2241 118.22 27.9585 119.926 26.1095C121.632 24.2475 123.721 23.3165 126.195 23.3165C129.086 23.3165 131.182 24.3256 132.484 26.3439V25.8751C132.484 25.2631 132.458 24.5275 132.406 23.6681H137.074C136.996 24.7358 136.957 26.3894 136.957 28.629V47.4376ZM131.078 36.8712C132.12 35.7514 132.641 34.4038 132.641 32.8282C132.641 31.2527 132.113 29.9051 131.059 28.7853C130.017 27.6655 128.773 27.1056 127.328 27.1056C125.831 27.1056 124.555 27.6655 123.5 28.7853C122.445 29.892 121.918 31.2267 121.918 32.7892C121.918 34.3777 122.452 35.7384 123.52 36.8712C124.587 37.991 125.87 38.5509 127.367 38.5509C128.812 38.5509 130.049 37.991 131.078 36.8712ZM152.801 34.2736C152.801 35.797 153.152 36.9168 153.855 37.6329C154.572 38.3491 155.418 38.7072 156.395 38.7072C157.423 38.7072 158.276 38.3165 158.953 37.5353C159.643 36.741 159.988 35.6538 159.988 34.2736V27.7501C159.988 26.0574 159.936 24.6967 159.832 23.6681H164.637C164.533 24.6967 164.48 26.0574 164.48 27.7501V37.9064C164.48 39.7163 164.676 41.0769 165.066 41.9884H160.711C160.333 41.2072 160.145 40.3413 160.145 39.3907C158.921 41.3569 157.124 42.34 154.754 42.34C152.814 42.34 151.251 41.6889 150.066 40.3868C148.895 39.0717 148.309 37.2163 148.309 34.8204V26.3048H146.395C146.811 25.7059 147.208 24.8269 147.586 23.6681H152.957C152.853 25.2045 152.801 26.5652 152.801 27.7501V34.2736ZM180.559 26.8712C179.543 26.8712 178.677 27.034 177.961 27.3595C177.245 27.672 176.568 28.1212 175.93 28.7072V24.5861C176.19 24.547 176.613 24.4168 177.199 24.1954C177.785 23.9611 178.456 23.7592 179.211 23.59C179.966 23.4077 180.786 23.3165 181.672 23.3165C186.607 23.3165 189.074 26.0574 189.074 31.5392V37.3009C189.074 38.4207 189.439 38.9806 190.168 38.9806C190.585 38.9806 190.891 38.9155 191.086 38.7853V41.5001C190.188 42.1512 189.172 42.4767 188.039 42.4767C187.271 42.4767 186.633 42.2944 186.125 41.9298C185.617 41.5652 185.285 41.0509 185.129 40.3868C184.634 41.0509 183.99 41.5652 183.195 41.9298C182.401 42.2944 181.548 42.4767 180.637 42.4767C178.775 42.4767 177.29 41.9819 176.184 40.9923C175.077 39.9897 174.523 38.6811 174.523 37.0665C174.523 35.4389 175.09 34.0782 176.223 32.9845C177.368 31.8907 178.938 31.3439 180.93 31.3439C181.763 31.3439 182.551 31.4936 183.293 31.7931C184.035 32.0926 184.562 32.4506 184.875 32.8673V31.1876C184.875 29.8986 184.51 28.8569 183.781 28.0626C183.065 27.2684 181.991 26.8712 180.559 26.8712ZM178.957 36.8322C178.957 37.5743 179.224 38.1928 179.758 38.6876C180.305 39.1824 181.04 39.4298 181.965 39.4298C182.785 39.4298 183.488 39.1759 184.074 38.6681C184.66 38.1603 184.953 37.5483 184.953 36.8322C184.953 36.142 184.66 35.5496 184.074 35.0548C183.488 34.56 182.785 34.3126 181.965 34.3126C181.04 34.3126 180.305 34.5535 179.758 35.0353C179.224 35.517 178.957 36.116 178.957 36.8322ZM209.898 23.3165C210.341 23.3165 210.745 23.3491 211.109 23.4142C211.474 23.4793 211.715 23.5118 211.832 23.5118V28.3165C211.064 27.8087 210.185 27.5548 209.195 27.5548C208.128 27.5548 207.229 28.0952 206.5 29.1759C205.784 30.2436 205.426 31.435 205.426 32.7501V37.9064C205.426 39.2605 205.465 40.6212 205.543 41.9884H200.777C200.868 40.3999 200.914 39.0392 200.914 37.9064V26.3048H198.98C199.475 25.5236 199.892 24.6447 200.23 23.6681H204.977V27.7892C205.315 26.448 205.94 25.3673 206.852 24.547C207.763 23.7267 208.779 23.3165 209.898 23.3165ZM236.934 33.3556H224.199C224.277 34.853 224.85 36.129 225.918 37.1837C226.986 38.2254 228.32 38.7462 229.922 38.7462C231.055 38.7462 232.012 38.6551 232.793 38.4728C233.574 38.2775 234.349 37.9324 235.117 37.4376V41.3439C234.818 41.3699 234.375 41.4676 233.789 41.6368C233.216 41.7931 232.539 41.9428 231.758 42.0861C230.977 42.2293 230.111 42.3009 229.16 42.3009C226.413 42.3009 224.134 41.4025 222.324 39.6056C220.514 37.7957 219.609 35.5626 219.609 32.9064C219.609 30.172 220.449 27.8999 222.129 26.09C223.822 24.267 225.911 23.3556 228.398 23.3556C229.727 23.3556 230.944 23.629 232.051 24.1759C233.171 24.7228 234.082 25.4324 234.785 26.3048C235.488 27.1772 236.035 28.1342 236.426 29.1759C236.816 30.2176 237.012 31.2462 237.012 32.2618C237.012 32.7306 236.986 33.0952 236.934 33.3556ZM228.359 26.6368C227.331 26.6368 226.445 26.9754 225.703 27.6525C224.974 28.3165 224.46 29.1889 224.16 30.2697H232.324C232.194 29.3191 231.771 28.4793 231.055 27.7501C230.352 27.0079 229.453 26.6368 228.359 26.6368ZM247.27 33.8048C246.527 32.047 246.156 30.2045 246.156 28.2775C246.156 26.3504 246.527 24.5144 247.27 22.7697C248.025 21.0118 249.04 19.4949 250.316 18.2189C251.592 16.9428 253.122 15.9337 254.906 15.1915C256.69 14.4363 258.572 14.0587 260.551 14.0587C263.22 14.0587 265.661 14.6967 267.875 15.9728C270.102 17.2488 271.846 18.9741 273.109 21.1486C274.372 23.323 275.004 25.6993 275.004 28.2775C275.004 30.2045 274.626 32.047 273.871 33.8048C273.129 35.5496 272.12 37.06 270.844 38.3361C269.568 39.5991 268.031 40.6082 266.234 41.3634C264.451 42.1056 262.556 42.4767 260.551 42.4767C258.572 42.4767 256.69 42.1056 254.906 41.3634C253.122 40.6082 251.592 39.5991 250.316 38.3361C249.04 37.06 248.025 35.5496 247.27 33.8048ZM252.23 23.1603C251.384 24.7228 250.961 26.4285 250.961 28.2775C250.961 30.1264 251.384 31.8322 252.23 33.3947C253.077 34.9572 254.236 36.1941 255.707 37.1056C257.178 38.017 258.793 38.4728 260.551 38.4728C262.322 38.4728 263.943 38.017 265.414 37.1056C266.898 36.1941 268.064 34.9572 268.91 33.3947C269.77 31.8322 270.199 30.1264 270.199 28.2775C270.199 26.4285 269.77 24.7228 268.91 23.1603C268.064 21.5978 266.898 20.3673 265.414 19.4689C263.943 18.5574 262.322 18.1017 260.551 18.1017C258.793 18.1017 257.178 18.5574 255.707 19.4689C254.236 20.3673 253.077 21.5978 252.23 23.1603ZM297.371 31.5392C297.371 30.0548 297.039 28.922 296.375 28.1407C295.724 27.3465 294.884 26.9493 293.855 26.9493C292.749 26.9493 291.863 27.3465 291.199 28.1407C290.548 28.935 290.223 30.0027 290.223 31.3439V37.8673C290.223 39.4689 290.262 40.8426 290.34 41.9884H285.574C285.652 40.8426 285.691 39.4689 285.691 37.8673V26.3048H283.777C284.194 25.6668 284.624 24.7879 285.066 23.6681H290.223V26.1876C290.73 25.3413 291.44 24.6577 292.352 24.1368C293.276 23.616 294.324 23.3556 295.496 23.3556C297.553 23.3556 299.135 24.0652 300.242 25.4845C301.349 26.8907 301.902 28.909 301.902 31.5392V37.8673C301.902 39.4689 301.941 40.8426 302.02 41.9884H297.254C297.332 40.8426 297.371 39.4689 297.371 37.8673V31.5392ZM329.309 33.3556H316.574C316.652 34.853 317.225 36.129 318.293 37.1837C319.361 38.2254 320.695 38.7462 322.297 38.7462C323.43 38.7462 324.387 38.6551 325.168 38.4728C325.949 38.2775 326.724 37.9324 327.492 37.4376V41.3439C327.193 41.3699 326.75 41.4676 326.164 41.6368C325.591 41.7931 324.914 41.9428 324.133 42.0861C323.352 42.2293 322.486 42.3009 321.535 42.3009C318.788 42.3009 316.509 41.4025 314.699 39.6056C312.889 37.7957 311.984 35.5626 311.984 32.9064C311.984 30.172 312.824 27.8999 314.504 26.09C316.197 24.267 318.286 23.3556 320.773 23.3556C322.102 23.3556 323.319 23.629 324.426 24.1759C325.546 24.7228 326.457 25.4324 327.16 26.3048C327.863 27.1772 328.41 28.1342 328.801 29.1759C329.191 30.2176 329.387 31.2462 329.387 32.2618C329.387 32.7306 329.361 33.0952 329.309 33.3556ZM320.734 26.6368C319.706 26.6368 318.82 26.9754 318.078 27.6525C317.349 28.3165 316.835 29.1889 316.535 30.2697H324.699C324.569 29.3191 324.146 28.4793 323.43 27.7501C322.727 27.0079 321.828 26.6368 320.734 26.6368Z" fill="#E8D8C3"/>
</svg>
